<mxfile host="app.diagrams.net" modified="2023-05-26T04:55:28.086Z" agent="Mozilla/5.0 (Windows NT 10.0; Win64; x64) AppleWebKit/537.36 (KHTML, like Gecko) Chrome/113.0.0.0 Safari/537.36 Edg/113.0.1774.50" etag="LX5zv8NBCFyf_QNwsAAm" version="21.3.3" type="device">
  <diagram id="R2lEEEUBdFMjLlhIrx00" name="Page-1">
    <mxGraphModel dx="474" dy="763" grid="1" gridSize="10" guides="1" tooltips="1" connect="1" arrows="1" fold="1" page="1" pageScale="1" pageWidth="850" pageHeight="1100" math="0" shadow="0" extFonts="Permanent Marker^https://fonts.googleapis.com/css?family=Permanent+Marker">
      <root>
        <mxCell id="0" />
        <mxCell id="1" parent="0" />
        <mxCell id="tcFEj8BiSfgUI2yy5do_-1" value="Libro" style="rounded=0;whiteSpace=wrap;html=1;" vertex="1" parent="1">
          <mxGeometry x="40" y="560" width="120" height="60" as="geometry" />
        </mxCell>
        <mxCell id="tcFEj8BiSfgUI2yy5do_-2" value="Usuario" style="rounded=0;whiteSpace=wrap;html=1;" vertex="1" parent="1">
          <mxGeometry x="710" y="560" width="120" height="60" as="geometry" />
        </mxCell>
        <mxCell id="tcFEj8BiSfgUI2yy5do_-3" value="Categoria" style="rounded=0;whiteSpace=wrap;html=1;" vertex="1" parent="1">
          <mxGeometry x="470" y="560" width="120" height="60" as="geometry" />
        </mxCell>
        <mxCell id="tcFEj8BiSfgUI2yy5do_-4" value="Prestamo" style="rounded=0;whiteSpace=wrap;html=1;" vertex="1" parent="1">
          <mxGeometry x="380" y="800" width="120" height="60" as="geometry" />
        </mxCell>
        <mxCell id="tcFEj8BiSfgUI2yy5do_-5" value="" style="endArrow=none;html=1;rounded=0;entryX=0;entryY=0.5;entryDx=0;entryDy=0;exitX=1;exitY=0.5;exitDx=0;exitDy=0;strokeWidth=2;" edge="1" parent="1" source="tcFEj8BiSfgUI2yy5do_-7" target="tcFEj8BiSfgUI2yy5do_-3">
          <mxGeometry width="50" height="50" relative="1" as="geometry">
            <mxPoint x="570" y="650" as="sourcePoint" />
            <mxPoint x="620" y="600" as="targetPoint" />
          </mxGeometry>
        </mxCell>
        <mxCell id="tcFEj8BiSfgUI2yy5do_-6" value="" style="endArrow=none;html=1;rounded=0;entryX=0.5;entryY=1;entryDx=0;entryDy=0;exitX=1;exitY=0;exitDx=0;exitDy=0;strokeWidth=2;" edge="1" parent="1" source="tcFEj8BiSfgUI2yy5do_-9" target="tcFEj8BiSfgUI2yy5do_-2">
          <mxGeometry width="50" height="50" relative="1" as="geometry">
            <mxPoint x="170" y="600" as="sourcePoint" />
            <mxPoint x="390" y="600" as="targetPoint" />
          </mxGeometry>
        </mxCell>
        <mxCell id="tcFEj8BiSfgUI2yy5do_-8" value="" style="endArrow=none;html=1;rounded=0;entryX=0;entryY=0.5;entryDx=0;entryDy=0;exitX=1;exitY=0.5;exitDx=0;exitDy=0;strokeWidth=2;" edge="1" parent="1" source="tcFEj8BiSfgUI2yy5do_-1" target="tcFEj8BiSfgUI2yy5do_-7">
          <mxGeometry width="50" height="50" relative="1" as="geometry">
            <mxPoint x="160" y="590" as="sourcePoint" />
            <mxPoint x="380" y="590" as="targetPoint" />
          </mxGeometry>
        </mxCell>
        <mxCell id="tcFEj8BiSfgUI2yy5do_-7" value="Pertenece" style="rhombus;whiteSpace=wrap;html=1;" vertex="1" parent="1">
          <mxGeometry x="280" y="550" width="80" height="80" as="geometry" />
        </mxCell>
        <mxCell id="tcFEj8BiSfgUI2yy5do_-10" value="" style="endArrow=none;html=1;rounded=0;entryX=0;entryY=1;entryDx=0;entryDy=0;exitX=1;exitY=0.5;exitDx=0;exitDy=0;strokeWidth=2;" edge="1" parent="1" source="tcFEj8BiSfgUI2yy5do_-4" target="tcFEj8BiSfgUI2yy5do_-9">
          <mxGeometry width="50" height="50" relative="1" as="geometry">
            <mxPoint x="500" y="830" as="sourcePoint" />
            <mxPoint x="770" y="620" as="targetPoint" />
          </mxGeometry>
        </mxCell>
        <mxCell id="tcFEj8BiSfgUI2yy5do_-9" value="Realizar" style="rhombus;whiteSpace=wrap;html=1;" vertex="1" parent="1">
          <mxGeometry x="600" y="680" width="80" height="80" as="geometry" />
        </mxCell>
        <mxCell id="tcFEj8BiSfgUI2yy5do_-11" value="" style="endArrow=none;html=1;rounded=0;entryX=0.5;entryY=1;entryDx=0;entryDy=0;strokeWidth=2;" edge="1" parent="1" source="tcFEj8BiSfgUI2yy5do_-33" target="tcFEj8BiSfgUI2yy5do_-1">
          <mxGeometry width="50" height="50" relative="1" as="geometry">
            <mxPoint x="510" y="840" as="sourcePoint" />
            <mxPoint x="660" y="760" as="targetPoint" />
          </mxGeometry>
        </mxCell>
        <mxCell id="tcFEj8BiSfgUI2yy5do_-13" value="Autor" style="ellipse;whiteSpace=wrap;html=1;" vertex="1" parent="1">
          <mxGeometry x="20" y="640" width="50" height="30" as="geometry" />
        </mxCell>
        <mxCell id="tcFEj8BiSfgUI2yy5do_-14" value="AÃ±o&lt;br&gt;Publica..." style="ellipse;whiteSpace=wrap;html=1;" vertex="1" parent="1">
          <mxGeometry x="70" y="670" width="60" height="40" as="geometry" />
        </mxCell>
        <mxCell id="tcFEj8BiSfgUI2yy5do_-15" value="&lt;u&gt;ID libro&lt;/u&gt;" style="ellipse;whiteSpace=wrap;html=1;" vertex="1" parent="1">
          <mxGeometry x="60" y="420" width="60" height="40" as="geometry" />
        </mxCell>
        <mxCell id="tcFEj8BiSfgUI2yy5do_-16" value="Nombre" style="ellipse;whiteSpace=wrap;html=1;" vertex="1" parent="1">
          <mxGeometry x="20" y="490" width="60" height="40" as="geometry" />
        </mxCell>
        <mxCell id="tcFEj8BiSfgUI2yy5do_-17" value="&lt;u&gt;Codigo Prestamo&lt;/u&gt;" style="ellipse;whiteSpace=wrap;html=1;" vertex="1" parent="1">
          <mxGeometry x="340" y="910" width="60" height="40" as="geometry" />
        </mxCell>
        <mxCell id="tcFEj8BiSfgUI2yy5do_-18" value="tipo de libros" style="ellipse;whiteSpace=wrap;html=1;" vertex="1" parent="1">
          <mxGeometry x="390" y="635" width="60" height="40" as="geometry" />
        </mxCell>
        <mxCell id="tcFEj8BiSfgUI2yy5do_-19" value="Fecha Inicio" style="ellipse;whiteSpace=wrap;html=1;" vertex="1" parent="1">
          <mxGeometry x="440" y="930" width="60" height="40" as="geometry" />
        </mxCell>
        <mxCell id="tcFEj8BiSfgUI2yy5do_-20" value="Fecha devolucion" style="ellipse;whiteSpace=wrap;html=1;" vertex="1" parent="1">
          <mxGeometry x="550" y="900" width="60" height="40" as="geometry" />
        </mxCell>
        <mxCell id="tcFEj8BiSfgUI2yy5do_-22" value="&lt;u&gt;ID categoria&lt;/u&gt;" style="ellipse;whiteSpace=wrap;html=1;" vertex="1" parent="1">
          <mxGeometry x="500" y="650" width="60" height="40" as="geometry" />
        </mxCell>
        <mxCell id="tcFEj8BiSfgUI2yy5do_-23" value="Nombre&lt;br&gt;Categoria" style="ellipse;whiteSpace=wrap;html=1;" vertex="1" parent="1">
          <mxGeometry x="425" y="490" width="60" height="40" as="geometry" />
        </mxCell>
        <mxCell id="tcFEj8BiSfgUI2yy5do_-24" value="Nombre" style="ellipse;whiteSpace=wrap;html=1;" vertex="1" parent="1">
          <mxGeometry x="660" y="450" width="60" height="40" as="geometry" />
        </mxCell>
        <mxCell id="tcFEj8BiSfgUI2yy5do_-25" value="Direccion" style="ellipse;whiteSpace=wrap;html=1;" vertex="1" parent="1">
          <mxGeometry x="780" y="640" width="60" height="40" as="geometry" />
        </mxCell>
        <mxCell id="tcFEj8BiSfgUI2yy5do_-26" value="&lt;u&gt;ID usuario&lt;/u&gt;" style="ellipse;whiteSpace=wrap;html=1;" vertex="1" parent="1">
          <mxGeometry x="770" y="460" width="60" height="40" as="geometry" />
        </mxCell>
        <mxCell id="tcFEj8BiSfgUI2yy5do_-28" value="" style="endArrow=none;html=1;rounded=0;entryX=0.5;entryY=1;entryDx=0;entryDy=0;exitX=0.5;exitY=0;exitDx=0;exitDy=0;" edge="1" parent="1" source="tcFEj8BiSfgUI2yy5do_-1" target="tcFEj8BiSfgUI2yy5do_-15">
          <mxGeometry width="50" height="50" relative="1" as="geometry">
            <mxPoint x="90" y="650" as="sourcePoint" />
            <mxPoint x="140" y="600" as="targetPoint" />
          </mxGeometry>
        </mxCell>
        <mxCell id="tcFEj8BiSfgUI2yy5do_-29" value="" style="endArrow=none;html=1;rounded=0;entryX=0.5;entryY=1;entryDx=0;entryDy=0;exitX=0.25;exitY=0;exitDx=0;exitDy=0;" edge="1" parent="1" source="tcFEj8BiSfgUI2yy5do_-1" target="tcFEj8BiSfgUI2yy5do_-16">
          <mxGeometry width="50" height="50" relative="1" as="geometry">
            <mxPoint x="110" y="570" as="sourcePoint" />
            <mxPoint x="100" y="470" as="targetPoint" />
          </mxGeometry>
        </mxCell>
        <mxCell id="tcFEj8BiSfgUI2yy5do_-30" value="" style="endArrow=none;html=1;rounded=0;entryX=0.25;entryY=1;entryDx=0;entryDy=0;exitX=0.5;exitY=0;exitDx=0;exitDy=0;" edge="1" parent="1" source="tcFEj8BiSfgUI2yy5do_-13" target="tcFEj8BiSfgUI2yy5do_-1">
          <mxGeometry width="50" height="50" relative="1" as="geometry">
            <mxPoint x="80" y="570" as="sourcePoint" />
            <mxPoint x="60" y="540" as="targetPoint" />
          </mxGeometry>
        </mxCell>
        <mxCell id="tcFEj8BiSfgUI2yy5do_-31" value="" style="endArrow=none;html=1;rounded=0;entryX=0.5;entryY=0;entryDx=0;entryDy=0;exitX=0.358;exitY=1.017;exitDx=0;exitDy=0;exitPerimeter=0;" edge="1" parent="1" source="tcFEj8BiSfgUI2yy5do_-1" target="tcFEj8BiSfgUI2yy5do_-14">
          <mxGeometry width="50" height="50" relative="1" as="geometry">
            <mxPoint x="55" y="650" as="sourcePoint" />
            <mxPoint x="80" y="630" as="targetPoint" />
          </mxGeometry>
        </mxCell>
        <mxCell id="tcFEj8BiSfgUI2yy5do_-32" value="&lt;span style=&quot;font-size: 18px;&quot;&gt;(N:N)&lt;/span&gt;" style="text;html=1;strokeColor=none;fillColor=none;align=center;verticalAlign=middle;whiteSpace=wrap;rounded=0;" vertex="1" parent="1">
          <mxGeometry x="290" y="510" width="60" height="30" as="geometry" />
        </mxCell>
        <mxCell id="tcFEj8BiSfgUI2yy5do_-34" value="" style="endArrow=none;html=1;rounded=0;entryX=1;entryY=1;entryDx=0;entryDy=0;exitX=0;exitY=0.5;exitDx=0;exitDy=0;strokeWidth=2;" edge="1" parent="1" source="tcFEj8BiSfgUI2yy5do_-4" target="tcFEj8BiSfgUI2yy5do_-33">
          <mxGeometry width="50" height="50" relative="1" as="geometry">
            <mxPoint x="380" y="830" as="sourcePoint" />
            <mxPoint x="100" y="620" as="targetPoint" />
          </mxGeometry>
        </mxCell>
        <mxCell id="tcFEj8BiSfgUI2yy5do_-46" style="edgeStyle=orthogonalEdgeStyle;rounded=0;orthogonalLoop=1;jettySize=auto;html=1;" edge="1" parent="1" source="tcFEj8BiSfgUI2yy5do_-33">
          <mxGeometry relative="1" as="geometry">
            <mxPoint x="240" y="800" as="targetPoint" />
          </mxGeometry>
        </mxCell>
        <mxCell id="tcFEj8BiSfgUI2yy5do_-33" value="Prestado" style="rhombus;whiteSpace=wrap;html=1;" vertex="1" parent="1">
          <mxGeometry x="200" y="690" width="80" height="80" as="geometry" />
        </mxCell>
        <mxCell id="tcFEj8BiSfgUI2yy5do_-35" value="&lt;span style=&quot;font-size: 18px;&quot;&gt;(1:N)&lt;/span&gt;" style="text;html=1;strokeColor=none;fillColor=none;align=center;verticalAlign=middle;whiteSpace=wrap;rounded=0;" vertex="1" parent="1">
          <mxGeometry x="250" y="670" width="60" height="30" as="geometry" />
        </mxCell>
        <mxCell id="tcFEj8BiSfgUI2yy5do_-36" value="&lt;span style=&quot;font-size: 18px;&quot;&gt;(1:N)&lt;/span&gt;" style="text;html=1;strokeColor=none;fillColor=none;align=center;verticalAlign=middle;whiteSpace=wrap;rounded=0;" vertex="1" parent="1">
          <mxGeometry x="660" y="730" width="60" height="30" as="geometry" />
        </mxCell>
        <mxCell id="tcFEj8BiSfgUI2yy5do_-37" value="" style="endArrow=none;html=1;rounded=0;entryX=0.5;entryY=0;entryDx=0;entryDy=0;" edge="1" parent="1" target="tcFEj8BiSfgUI2yy5do_-17">
          <mxGeometry width="50" height="50" relative="1" as="geometry">
            <mxPoint x="410" y="860" as="sourcePoint" />
            <mxPoint x="610" y="600" as="targetPoint" />
          </mxGeometry>
        </mxCell>
        <mxCell id="tcFEj8BiSfgUI2yy5do_-38" value="" style="endArrow=none;html=1;rounded=0;entryX=0.5;entryY=0;entryDx=0;entryDy=0;exitX=0.5;exitY=1;exitDx=0;exitDy=0;" edge="1" parent="1" source="tcFEj8BiSfgUI2yy5do_-4" target="tcFEj8BiSfgUI2yy5do_-19">
          <mxGeometry width="50" height="50" relative="1" as="geometry">
            <mxPoint x="560" y="650" as="sourcePoint" />
            <mxPoint x="610" y="600" as="targetPoint" />
          </mxGeometry>
        </mxCell>
        <mxCell id="tcFEj8BiSfgUI2yy5do_-39" value="" style="endArrow=none;html=1;rounded=0;entryX=0.5;entryY=0;entryDx=0;entryDy=0;exitX=0.75;exitY=1;exitDx=0;exitDy=0;" edge="1" parent="1" source="tcFEj8BiSfgUI2yy5do_-4" target="tcFEj8BiSfgUI2yy5do_-20">
          <mxGeometry width="50" height="50" relative="1" as="geometry">
            <mxPoint x="560" y="650" as="sourcePoint" />
            <mxPoint x="610" y="600" as="targetPoint" />
          </mxGeometry>
        </mxCell>
        <mxCell id="tcFEj8BiSfgUI2yy5do_-40" value="" style="endArrow=none;html=1;rounded=0;entryX=0.5;entryY=0;entryDx=0;entryDy=0;exitX=0.5;exitY=1;exitDx=0;exitDy=0;" edge="1" parent="1" source="tcFEj8BiSfgUI2yy5do_-3" target="tcFEj8BiSfgUI2yy5do_-22">
          <mxGeometry width="50" height="50" relative="1" as="geometry">
            <mxPoint x="420" y="870" as="sourcePoint" />
            <mxPoint x="380" y="920" as="targetPoint" />
          </mxGeometry>
        </mxCell>
        <mxCell id="tcFEj8BiSfgUI2yy5do_-41" value="" style="endArrow=none;html=1;rounded=0;entryX=0.192;entryY=1.033;entryDx=0;entryDy=0;exitX=1;exitY=0;exitDx=0;exitDy=0;entryPerimeter=0;" edge="1" parent="1" source="tcFEj8BiSfgUI2yy5do_-18" target="tcFEj8BiSfgUI2yy5do_-3">
          <mxGeometry width="50" height="50" relative="1" as="geometry">
            <mxPoint x="540" y="630" as="sourcePoint" />
            <mxPoint x="540" y="660" as="targetPoint" />
          </mxGeometry>
        </mxCell>
        <mxCell id="tcFEj8BiSfgUI2yy5do_-42" value="" style="endArrow=none;html=1;rounded=0;entryX=1;entryY=1;entryDx=0;entryDy=0;exitX=0.5;exitY=0;exitDx=0;exitDy=0;" edge="1" parent="1" source="tcFEj8BiSfgUI2yy5do_-3" target="tcFEj8BiSfgUI2yy5do_-23">
          <mxGeometry width="50" height="50" relative="1" as="geometry">
            <mxPoint x="451" y="651" as="sourcePoint" />
            <mxPoint x="503" y="632" as="targetPoint" />
          </mxGeometry>
        </mxCell>
        <mxCell id="tcFEj8BiSfgUI2yy5do_-43" value="" style="endArrow=none;html=1;rounded=0;exitX=0.5;exitY=0;exitDx=0;exitDy=0;entryX=0.75;entryY=1;entryDx=0;entryDy=0;" edge="1" parent="1" source="tcFEj8BiSfgUI2yy5do_-25" target="tcFEj8BiSfgUI2yy5do_-2">
          <mxGeometry width="50" height="50" relative="1" as="geometry">
            <mxPoint x="690" y="650" as="sourcePoint" />
            <mxPoint x="740" y="600" as="targetPoint" />
          </mxGeometry>
        </mxCell>
        <mxCell id="tcFEj8BiSfgUI2yy5do_-44" value="" style="endArrow=none;html=1;rounded=0;entryX=0.733;entryY=0.95;entryDx=0;entryDy=0;entryPerimeter=0;exitX=0.433;exitY=0.017;exitDx=0;exitDy=0;exitPerimeter=0;" edge="1" parent="1" source="tcFEj8BiSfgUI2yy5do_-2" target="tcFEj8BiSfgUI2yy5do_-24">
          <mxGeometry width="50" height="50" relative="1" as="geometry">
            <mxPoint x="690" y="650" as="sourcePoint" />
            <mxPoint x="740" y="600" as="targetPoint" />
          </mxGeometry>
        </mxCell>
        <mxCell id="tcFEj8BiSfgUI2yy5do_-45" value="" style="endArrow=none;html=1;rounded=0;exitX=0.5;exitY=1;exitDx=0;exitDy=0;entryX=0.75;entryY=0;entryDx=0;entryDy=0;" edge="1" parent="1" source="tcFEj8BiSfgUI2yy5do_-26" target="tcFEj8BiSfgUI2yy5do_-2">
          <mxGeometry width="50" height="50" relative="1" as="geometry">
            <mxPoint x="820" y="650" as="sourcePoint" />
            <mxPoint x="810" y="630" as="targetPoint" />
          </mxGeometry>
        </mxCell>
        <mxCell id="tcFEj8BiSfgUI2yy5do_-47" value="&lt;span style=&quot;font-size: 14px;&quot;&gt;(1,n)&lt;/span&gt;" style="text;html=1;strokeColor=none;fillColor=none;align=center;verticalAlign=middle;whiteSpace=wrap;rounded=0;" vertex="1" parent="1">
          <mxGeometry x="320" y="770" width="60" height="30" as="geometry" />
        </mxCell>
        <mxCell id="tcFEj8BiSfgUI2yy5do_-48" value="&lt;span style=&quot;font-size: 14px;&quot;&gt;(1,1)&lt;/span&gt;" style="text;html=1;strokeColor=none;fillColor=none;align=center;verticalAlign=middle;whiteSpace=wrap;rounded=0;" vertex="1" parent="1">
          <mxGeometry x="130" y="620" width="60" height="30" as="geometry" />
        </mxCell>
        <mxCell id="tcFEj8BiSfgUI2yy5do_-49" value="&lt;span style=&quot;font-size: 14px;&quot;&gt;(1,n)&lt;/span&gt;" style="text;html=1;strokeColor=none;fillColor=none;align=center;verticalAlign=middle;whiteSpace=wrap;rounded=0;" vertex="1" parent="1">
          <mxGeometry x="150" y="550" width="60" height="30" as="geometry" />
        </mxCell>
        <mxCell id="tcFEj8BiSfgUI2yy5do_-50" value="&lt;span style=&quot;font-size: 14px;&quot;&gt;(1,n)&lt;/span&gt;" style="text;html=1;strokeColor=none;fillColor=none;align=center;verticalAlign=middle;whiteSpace=wrap;rounded=0;" vertex="1" parent="1">
          <mxGeometry x="410" y="540" width="60" height="30" as="geometry" />
        </mxCell>
        <mxCell id="tcFEj8BiSfgUI2yy5do_-51" value="&lt;span style=&quot;font-size: 14px;&quot;&gt;(1,1)&lt;/span&gt;" style="text;html=1;strokeColor=none;fillColor=none;align=center;verticalAlign=middle;whiteSpace=wrap;rounded=0;" vertex="1" parent="1">
          <mxGeometry x="510" y="810" width="60" height="30" as="geometry" />
        </mxCell>
        <mxCell id="tcFEj8BiSfgUI2yy5do_-52" value="&lt;span style=&quot;font-size: 14px;&quot;&gt;(1,n)&lt;/span&gt;" style="text;html=1;strokeColor=none;fillColor=none;align=center;verticalAlign=middle;whiteSpace=wrap;rounded=0;" vertex="1" parent="1">
          <mxGeometry x="730" y="630" width="60" height="30" as="geometry" />
        </mxCell>
      </root>
    </mxGraphModel>
  </diagram>
</mxfile>
